# xmcd CD database file
#
# Track frame offsets:
#	150
#	12559
#	24927
#	37517
#	50595
#	63125
#	75302
#	87937
#	100692
#	113425
#	125575
#	137872
#	150445
#	162755
#	175757
#	188255
#	199880
#	212725
#	225120
#	237992
#	249672
#	261995
#
# Disc length: 3655 seconds
#
# Revision: 0
# Processed by: cddbd v1.4PL0 Copyright (c) Steve Scherf et al.
# Submitted via: CDex 1.40Beta9
#
DISCID=050e4516
DTITLE=Hank Williams - Move It On Over
DYEAR=1900
DGENRE=Country
TTITLE0=Move It On Over
TTITLE1=I Saw The Light
TTITLE2=Honky Tonkin'
TTITLE3=Calling You
TTITLE4=Wealth Won't Save Your Soul
TTITLE5=Never Again (Will I Knock On Your Door)
TTITLE6=I Don't Care (If Tomorrow Never Comes)
TTITLE7=When God Comes And Gathers His Jewels
TTITLE8=Pan American
TTITLE9=My Love For You (Has Turned To Hate)
TTITLE10=(Last Night) I Heard You Crying In Your Sleep
TTITLE11=Six More Miles (To The Graveyard)
TTITLE12=Fly Trouble
TTITLE13=On The Banks Of The Old Pontchartrain
TTITLE14=Rootie Tootie
TTITLE15=I'm Satisfied With You
TTITLE16=I'm A Long Gone Daddy
TTITLE17=Honky Tonkin' (2)
TTITLE18=I Can't Get You Off My Mind
TTITLE19=A Mansion  On The Hill
TTITLE20=My Sweet Love Ain't Around
TTITLE21=The Blues Come Around
EXTD=ID3G: 2
EXTT0=
EXTT1=
EXTT2=
EXTT3=
EXTT4=
EXTT5=
EXTT6=
EXTT7=
EXTT8=
EXTT9=
EXTT10=
EXTT11=
EXTT12=
EXTT13=
EXTT14=
EXTT15=
EXTT16=
EXTT17=
EXTT18=
EXTT19=
EXTT20=
EXTT21=
PLAYORDER=
